<?xml version="1.0" standalone="no"?>
<!DOCTYPE svg PUBLIC "-//W3C//DTD SVG 20010904//EN"
 "http://www.w3.org/TR/2001/REC-SVG-20010904/DTD/svg10.dtd">
<svg version="1.0" xmlns="http://www.w3.org/2000/svg"
 width="512.000000pt" height="512.000000pt" viewBox="0 0 512.000000 512.000000"
 preserveAspectRatio="xMidYMid meet">
<metadata>
Created by potrace 1.11, written by Peter Selinger 2001-2013
</metadata>
<g transform="translate(0.000000,512.000000) scale(0.100000,-0.100000)"
fill="#000000" stroke="none">
<path d="M3295 4364 c-94 -14 -154 -33 -250 -81 -135 -68 -307 -192 -438 -316
l-47 -46 -64 61 c-180 168 -375 294 -556 358 -54 20 -86 24 -185 24 -112 1
-124 -1 -178 -27 -245 -121 -324 -484 -214 -990 l22 -102 -130 -43 c-368 -122
-615 -300 -696 -503 -27 -70 -29 -184 -4 -254 75 -211 339 -401 731 -525 l100
-31 -22 -97 c-45 -203 -61 -439 -40 -592 39 -274 198 -438 426 -438 213 0 496
150 763 405 l48 45 57 -53 c187 -176 378 -301 554 -361 81 -28 107 -32 198
-32 98 -1 109 1 170 31 36 17 81 46 101 65 116 108 172 295 164 548 -4 144 -7
170 -41 342 -25 126 -25 148 0 148 30 0 241 77 341 125 329 158 496 356 479
571 -20 242 -271 454 -715 605 -68 23 -126 43 -128 45 -2 2 8 60 22 131 34
170 41 235 41 378 1 151 -8 222 -38 307 -81 232 -243 336 -471 302z m-1441
-169 c133 -37 275 -118 431 -246 91 -75 155 -133 155 -143 0 -4 -15 -24 -34
-44 -70 -76 -291 -353 -310 -389 -1 -1 -28 -4 -61 -8 -92 -9 -135 -15 -195
-25 -30 -5 -71 -11 -90 -14 -19 -3 -73 -12 -119 -21 -46 -9 -85 -14 -87 -12
-3 2 -15 56 -29 118 -80 385 -35 690 114 769 60 31 145 37 225 15z m1626 -11
c131 -64 188 -280 155 -593 -8 -75 -11 -91 -32 -186 -8 -38 -16 -79 -17 -90
-4 -28 -22 -29 -133 -6 -100 21 -260 45 -368 56 -33 3 -60 7 -61 8 -66 92
-188 247 -255 324 -49 56 -89 106 -89 110 0 5 26 31 57 58 31 28 61 55 67 60
124 115 368 254 473 271 21 3 40 8 43 11 10 10 126 -6 160 -23z m-890 -526
c52 -56 213 -256 211 -262 -2 -10 -481 -8 -481 1 1 11 126 168 182 228 26 27
48 53 48 58 0 13 10 7 40 -25z m278 -436 l63 -4 48 -71 c78 -117 169 -272 252
-431 l78 -149 -75 -144 c-88 -168 -232 -410 -299 -501 -9 -12 -602 -19 -690
-8 -16 2 -37 4 -45 5 -13 1 -98 120 -145 202 -5 10 -35 60 -66 113 -31 52 -84
148 -118 214 l-61 120 61 118 c33 66 69 133 78 149 10 17 45 75 77 130 32 55
81 134 109 176 l50 75 60 3 c33 1 62 4 63 6 5 5 480 2 560 -3z m-990 -189
c-51 -87 -107 -184 -123 -215 l-30 -58 -21 48 c-40 91 -117 312 -111 318 6 6
102 28 172 39 22 3 76 12 120 19 44 7 82 11 84 10 2 -2 -39 -74 -91 -161z
m1337 153 c102 -13 304 -51 311 -59 7 -7 -116 -350 -130 -365 -2 -1 -20 30
-41 70 -21 40 -75 137 -121 214 -46 78 -84 144 -84 147 0 4 6 5 13 2 6 -2 30
-6 52 -9z m-1735 -246 c29 -80 75 -197 102 -260 l49 -114 -45 -101 c-45 -103
-130 -328 -142 -378 -4 -16 -13 -31 -21 -34 -7 -3 -69 14 -136 37 -371 128
-587 304 -589 478 -1 170 233 356 607 481 65 22 120 39 121 38 1 -1 26 -67 54
-147z m2410 83 c183 -68 335 -157 427 -248 203 -204 104 -416 -281 -601 -104
-50 -307 -124 -337 -124 -9 0 -27 40 -47 103 -18 56 -62 172 -98 259 l-66 156
25 54 c41 90 84 197 133 335 l47 131 51 -15 c28 -8 94 -31 146 -50z m-2110
-750 c29 -54 83 -149 121 -211 38 -63 69 -116 69 -119 0 -2 -12 -2 -27 1 -16
3 -48 8 -73 11 -25 3 -54 7 -65 9 -11 2 -64 11 -117 21 -54 10 -98 20 -98 24
0 26 126 361 136 361 1 0 26 -44 54 -97z m1688 -83 c77 -206 84 -182 -55 -208
-65 -13 -136 -25 -158 -27 -22 -3 -55 -7 -72 -10 -18 -3 -33 -2 -33 3 0 4 20
38 45 75 25 38 45 70 45 72 0 2 13 26 29 53 35 59 82 144 106 191 l17 35 13
-25 c7 -13 35 -85 63 -159z m-1813 -364 c44 -9 91 -17 105 -20 104 -17 130
-21 225 -32 65 -7 96 -11 107 -13 4 0 29 -31 55 -68 49 -70 215 -275 265 -328
15 -16 28 -34 27 -40 0 -11 -131 -126 -211 -187 -311 -234 -562 -276 -674
-113 -32 45 -63 139 -71 208 -12 109 -5 323 12 387 3 8 7 33 10 55 4 22 13 71
22 108 12 55 18 67 31 63 10 -3 53 -12 97 -20z m1949 -101 c3 -16 10 -52 15
-80 23 -118 31 -313 17 -410 -44 -311 -227 -388 -541 -227 -92 48 -280 183
-372 270 l-52 48 28 30 c55 59 188 222 255 311 56 76 75 94 100 97 32 5 85 12
166 21 39 5 203 32 320 54 35 7 35 6 47 -39 7 -25 15 -58 17 -75z m-802 8
c-17 -28 -233 -283 -241 -283 -12 0 -218 242 -243 285 -4 7 79 10 242 10 187
0 247 -3 242 -12z"/>
<path d="M2459 2917 c-103 -29 -190 -104 -238 -206 -35 -76 -37 -210 -3 -284
59 -131 172 -211 310 -220 279 -19 475 275 347 522 -79 152 -255 232 -416 188z"/>
</g>
</svg>
